<svg xmlns="http://www.w3.org/2000/svg" xmlns:xlink="http://www.w3.org/1999/xlink" width="22px" height="22px" viewBox="0 0 22 22" version="1.1">
    <defs>
        <rect id="path-1" x="238" y="128" width="700" height="50" rx="2"/>
        <filter x="-50%" y="-50%" width="200%" height="200%" filterUnits="objectBoundingBox" id="filter-2">
            <feOffset dx="0" dy="1" in="SourceAlpha" result="shadowOffsetOuter1"/>
            <feGaussianBlur stdDeviation="1" in="shadowOffsetOuter1" result="shadowBlurOuter1"/>
            <feColorMatrix values="0 0 0 0 0   0 0 0 0 0   0 0 0 0 0  0 0 0 0.0502717391 0" type="matrix" in="shadowBlurOuter1"/>
        </filter>
        <rect id="path-3" x="4" y="4" width="13" height="14" rx="2"/>
        <mask id="mask-4" maskContentUnits="userSpaceOnUse" maskUnits="objectBoundingBox" x="0" y="0" width="13" height="14" fill="white">
            <use xlink:href="#path-3"/>
        </mask>
    </defs>
    <g id="首页" stroke="none" stroke-width="1" fill="none" fill-rule="evenodd">
        <g id="首页2_Co_普通用户" transform="translate(-305.000000, -142.000000)">
            <g id="Combined-Shape">
                <use fill="black" fill-opacity="1" filter="url(#filter-2)" xlink:href="#path-1"/>
                <use fill="#FFFFFF" fill-rule="evenodd" xlink:href="#path-1"/>
            </g>
            <g id="Group-30" transform="translate(305.000000, 142.000000)">
                <rect id="Rectangle-3" x="0" y="0" width="22" height="22"/>
                <path d="M9.89566265,9.34627832 L6.66750731,9.34627832 C6.37050717,9.34627832 6.12944984,9.10270482 6.12944984,8.80257836 C6.12944984,8.50247317 6.37050717,8.25889968 6.66750731,8.25889968 L9.89568371,8.25889968 C10.1926207,8.25889968 10.433657,8.50247317 10.433657,8.80257836 C10.4336359,9.10270482 10.1925996,9.34627832 9.89566265,9.34627832 M13.1132371,12.6084142 L6.6666982,12.6084142 C6.37014467,12.6084142 6.12944984,12.3654057 6.12944984,12.0647568 C6.12944984,11.7640229 6.37014467,11.5210356 6.6666982,11.5210356 L13.1132371,11.5210356 C13.4102741,11.5210356 13.6504854,11.7640229 13.6504854,12.0647568 C13.6504854,12.3653844 13.4102741,12.6084142 13.1132371,12.6084142" id="iconfont-bianji" fill="#007FFF"/>
                <use id="Rectangle" stroke="#007FFF" mask="url(#mask-4)" stroke-width="2" xlink:href="#path-3"/>
            </g>
        </g>
    </g>
</svg>